<?xml version="1.0" encoding="UTF-8" standalone="no"?>
<svg
   id="uuid-105d9673-14d1-4e4c-9418-2309c70f243b"
   data-name="Layer 1"
   viewBox="0 0 40.60701 40.60701"
   version="1.1"
   sodipodi:docname="close-click.svg"
   inkscape:version="1.4.3 (0d15f75042, 2025-12-25)"
   xmlns:inkscape="http://www.inkscape.org/namespaces/inkscape"
   xmlns:sodipodi="http://sodipodi.sourceforge.net/DTD/sodipodi-0.dtd"
   xmlns="http://www.w3.org/2000/svg"
   xmlns:svg="http://www.w3.org/2000/svg">
  <sodipodi:namedview
     id="namedview4"
     pagecolor="#ffffff"
     bordercolor="#000000"
     borderopacity="0.25"
     inkscape:showpageshadow="2"
     inkscape:pageopacity="0.0"
     inkscape:pagecheckerboard="0"
     inkscape:deskcolor="#d1d1d1"
     inkscape:zoom="19.676406"
     inkscape:cx="20.278094"
     inkscape:cy="20.303505"
     inkscape:window-width="1920"
     inkscape:window-height="1008"
     inkscape:window-x="0"
     inkscape:window-y="0"
     inkscape:window-maximized="1"
     inkscape:current-layer="uuid-105d9673-14d1-4e4c-9418-2309c70f243b" />
  <defs
     id="defs1">
    <style
       id="style1">
      .uuid-fc1d4baa-3a6b-4b70-98c7-e83d82b9e3e3 {
        fill: #4b5366;
      }
    </style>
  </defs>
  <path
     class="uuid-fc1d4baa-3a6b-4b70-98c7-e83d82b9e3e3"
     d="M22.62252,22.40513l10.83563-10.83563c.06003-.06003.15736-.06003.2174,0l3.64126,3.64126c.08667.08667.23496.04201.25935-.07812L40.60385.21826c.02186-.1077-.07308-.20289-.18084-.18131l-14.9482,2.99378c-.12037.02411-.16531.17262-.07851.25943l3.64062,3.64062c.06003.06003.06003.15736,0,.2174l-10.83567,10.83567c-.06003.06003-.06003.15736,0,.2174l4.20388,4.20388c.06003.06003.15736.06003.2174,0Z"
     id="path1"
     style="fill:#ffffff;fill-opacity:1" />
  <path
     class="uuid-fc1d4baa-3a6b-4b70-98c7-e83d82b9e3e3"
     d="M17.98448,18.20188l-10.83563,10.83563c-.06003.06003-.15736.06003-.2174,0l-3.64126-3.64126c-.08667-.08667-.23496-.04201-.25935.07812L.00316,40.38874c-.02186.1077.07308.20289.18084.18131l14.9482-2.99378c.12037-.02411.16531-.17262.07851-.25943l-3.64062-3.64062c-.06003-.06003-.06003-.15736,0-.2174l10.83567-10.83567c.06003-.06003.06003-.15736,0-.2174l-4.20388-4.20388c-.06003-.06003-.15736-.06003-.2174,0Z"
     id="path2"
     style="fill:#ffffff;fill-opacity:1" />
  <path
     class="uuid-fc1d4baa-3a6b-4b70-98c7-e83d82b9e3e3"
     d="M18.20188,22.62252l10.83563,10.83563c.06003.06003.06003.15736,0,.2174l-3.64126,3.64126c-.08667.08667-.04201.23496.07812.25935l14.91438,3.0277c.1077.02186.20289-.07308.18131-.18084l-2.99378-14.9482c-.02411-.12037-.17262-.16531-.25943-.07851l-3.64062,3.64062c-.06003.06003-.15736.06003-.2174,0l-10.83567-10.83567c-.06003-.06003-.15736-.06003-.2174,0l-4.20388,4.20388c-.06003.06003-.06003.15736,0,.2174Z"
     id="path3"
     style="fill:#ffffff;fill-opacity:1" />
  <path
     class="uuid-fc1d4baa-3a6b-4b70-98c7-e83d82b9e3e3"
     d="M22.40513,17.98448L11.5695,7.14886c-.06003-.06003-.06003-.15736,0-.2174l3.64126-3.64126c.08667-.08667.04201-.23496-.07812-.25935L.21826.00316C.11056-.0187.01537.07624.03695.184l2.99378,14.9482c.02411.12037.17262.16531.25943.07851l3.64062-3.64062c.06003-.06003.15736-.06003.2174,0l10.83567,10.83567c.06003.06003.15736.06003.2174,0l4.20388-4.20388c.06003-.06003.06003-.15736,0-.2174Z"
     id="path4"
     style="fill:#ffffff;fill-opacity:1" />
</svg>
