<?xml version="1.0" encoding="UTF-8"?>
<svg id="Layer_1" data-name="Layer 1" xmlns="http://www.w3.org/2000/svg" viewBox="0 0 47.01223 47.01217">
  <defs>
    <style>
      .cls-1 {
        fill: #3dbdee;
      }
    </style>
  </defs>
  <path class="cls-1" d="M28.45831,22.7966L46.01345,5.24148c1.05025-1.05025,1.32227-2.73556.46697-3.94986-1.10675-1.5713-3.29354-1.70894-4.58953-.41294l-17.68761,17.68761c-.38503.38503-1.00928.38503-1.3943,0L5.25987,1.01717C4.10071-.14199,2.18597-.32214.97685.78479-.29203,1.94642-.32475,3.91793.87868,5.12135l17.6708,17.6708c.39431.39431.39431,1.03362,0,1.42794L.99878,41.77076c-1.05025,1.05025-1.32225,2.73554-.46694,3.94983,1.10675,1.57127,3.29353,1.7089,4.58952.41291l17.68761-17.68761c.38503-.38503,1.00928-.38503,1.3943,0l17.56751,17.56752c1.05026,1.05026,2.73557,1.32225,3.94987.46693,1.57127-1.10676,1.7089-3.29347.41292-4.58945l-17.67524-17.67524c-.39186-.39186-.39186-1.02718,0-1.41904Z"/>
</svg>