<?xml version="1.0" encoding="UTF-8"?>
<svg id="Layer_1" data-name="Layer 1" xmlns="http://www.w3.org/2000/svg" viewBox="0 0 52.3237 52.32376">
  <path d="M26.9515,31.67359l19.53852,19.53854c1.16891,1.16891,3.04463,1.47166,4.39613.51973,1.74883-1.23179,1.90202-3.66565.4596-5.10807l-19.68599-19.68599c-.42853-.42853-.42853-1.12331,0-1.55184L51.1916,5.85414c1.29012-1.29012,1.49063-3.42119.25863-4.76692-1.29287-1.41224-3.48713-1.44865-4.82651-.10926l-19.66728,19.66728c-.43886.43886-1.1504.43886-1.58927,0L5.8336,1.11162C4.66469-.05728,2.78899-.36002,1.43751.59192-.31128,1.82372-.46446,4.25756.97795,5.69997l19.68599,19.68599c.42853.42853.42853,1.12331,0,1.55184L1.11161,46.49011c-1.16892,1.16892-1.47164,3.04464-.51968,4.39613,1.23181,1.7488,3.66557,1.90198,5.10798.45957l19.67223-19.67223c.43613-.43613,1.14324-.43613,1.57937,0Z"/>
</svg>